# xmcd CD database file
#
# Track frame offsets:
#	150
#	12974
#	26135
#	39726
#	54345
#	64027
#	74319
#	88605
#	101167
#	113322
#	125387
#	139041
#	152291
#	165320
#	178550
#	192509
#	206708
#	219281
#	233037
#	245609
#	257483
#	269859
#	282182
#
# Disc length: 3986 seconds
#
# Revision: 0
# Processed by: cddbd v1.5.1PL0 Copyright (c) Steve Scherf et al.
# Submitted via: CDex 1.50beta9
#
DISCID=410f9017
DTITLE=Gene Ammons - You can depend on me, CD 4
DYEAR=1900
DGENRE=Jazz
TTITLE0=Baby, won't you please say yes
TTITLE1=you're not the Kind
TTITLE2=Ammons Boogie
TTITLE3=Echo Chamger Blues
TTITLE4=Hot Stuff
TTITLE5=Them there Eyes
TTITLE6=When the Saints go marching in
TTITLE7=Archie
TTITLE8=Undecided
TTITLE9=Until the real Thing comes Along
TTITLE10=Just Chips
TTITLE11=Street of Dreams
TTITLE12=Good Time Blues
TTITLE13=Travellin Light
TTITLE14=Red Top
TTITLE15=Fuzzy
TTITLE16=Stairway to the Stars
TTITLE17=Jim Dawgs
TTITLE18=Sock
TTITLE19=What i say
TTITLE20=This is Always
TTITLE21=Blue Roller
TTITLE22=Love is here to stay
EXTD=
EXTT0=
EXTT1=
EXTT2=
EXTT3=
EXTT4=
EXTT5=
EXTT6=
EXTT7=
EXTT8=
EXTT9=
EXTT10=
EXTT11=
EXTT12=
EXTT13=
EXTT14=
EXTT15=
EXTT16=
EXTT17=
EXTT18=
EXTT19=
EXTT20=
EXTT21=
EXTT22=
PLAYORDER=
